<svg xmlns="http://www.w3.org/2000/svg" viewBox="0 0 220 40" fill="none">
  <defs>
    <linearGradient id="markGrad" x1="0" y1="0" x2="1" y2="1">
      <stop offset="0%" stop-color="#7c3aed"/>
      <stop offset="100%" stop-color="#a78bfa"/>
    </linearGradient>
    <linearGradient id="wordGrad" x1="0" y1="0" x2="1" y2="0">
      <stop offset="0%" stop-color="#7c3aed"/>
      <stop offset="100%" stop-color="#a78bfa"/>
    </linearGradient>
  </defs>

  <!-- Logo Mark: Geometric RS monogram in a rounded square -->
  <rect x="0" y="0" width="40" height="40" rx="9" fill="url(#markGrad)" opacity="0.12"/>
  <rect x="0" y="0" width="40" height="40" rx="9" fill="none" stroke="url(#markGrad)" stroke-width="1"/>

  <!-- R shape: vertical bar + diagonal arm -->
  <rect x="9" y="9" width="3" height="22" rx="1.5" fill="url(#markGrad)"/>
  <path d="M12 9 L22 9 Q27 9 27 15 Q27 21 22 21 L12 21" stroke="url(#markGrad)" stroke-width="3" stroke-linecap="round" fill="none"/>
  <line x1="20" y1="21" x2="27" y2="31" stroke="url(#markGrad)" stroke-width="3" stroke-linecap="round"/>

  <!-- S shape -->
  <path d="M29 13 Q29 9 24 9 Q19 9 19 13 Q19 17 24 17 Q29 17 29 22 Q29 27 24 27 Q19 27 19 23" stroke="url(#markGrad)" stroke-width="2.5" stroke-linecap="round" fill="none"/>

  <!-- Wordmark -->
  <text x="48" y="27" font-family="Inter, -apple-system, sans-serif" font-size="18" font-weight="400" fill="rgba(255,255,255,0.75)" letter-spacing="-0.3">Real</text>
  <text x="82" y="27" font-family="Inter, -apple-system, sans-serif" font-size="18" font-weight="700" fill="url(#wordGrad)" letter-spacing="-0.3">Sourcing</text>
</svg>
